<?xml version="1.0" encoding="UTF-8"?>
<svg width="61px" height="52px" viewBox="0 0 61 52" version="1.1" xmlns="http://www.w3.org/2000/svg" xmlns:xlink="http://www.w3.org/1999/xlink">
    <!-- Generator: Sketch 53.2 (72643) - https://sketchapp.com -->
    <title>complex/documents</title>
    <desc>Created with Sketch.</desc>
    <g id="App" stroke="none" stroke-width="1" fill="none" fill-rule="evenodd">
        <g id="icons" transform="translate(-430.000000, -59.000000)">
            <g id="complex" transform="translate(38.000000, 48.000000)">
                <g id="complex/documents" transform="translate(392.000000, 11.000000)">
                    <path d="M2.34615385,51.2173913 C13.8162393,51.3217391 31.5806964,51.2695652 55.6395252,51.0608696 L55.6395252,7.31304348 L31.2820513,7.31304348 L31.2820513,4.57658607 C31.2820513,2.36744707 29.4911903,0.576586065 27.2820513,0.576586065 C27.2753799,0.576586065 27.2687086,0.576602755 27.2620373,0.576636136 L3.98678653,0.693095338 C1.78282252,0.704123012 0.00304368863,2.49588572 0.00680636276,4.6998741 L0.0782051282,46.5217391 C0.0782051282,50.4347826 1.01666667,51.2173913 2.34615385,51.2173913 Z" id="Path" fill="#059312" fill-rule="nonzero"></path>
                    <path d="M2.18974359,51.2173913 L57.8717949,51.2173913 C59.2012821,51.2173913 60.2961538,50.1217391 60.2961538,48.7913043 L60.2961538,18.4347826 C60.2961538,16.2256436 58.5052928,14.4347826 56.2961538,14.4347826 L7.91025641,14.4347826 C5.70111741,14.4347826 3.91025641,16.2256436 3.91025641,18.4347826 L3.91025641,44.0173913 C3.91025641,48.0086957 4.14487179,51.2173913 2.18974359,51.2173913 Z" id="Path" fill="#37AC41" fill-rule="nonzero"></path>
                    <rect id="Rectangle" fill="#FFFFFF" fill-rule="nonzero" x="12" y="27" width="21" height="13" rx="2"></rect>
                    <g id="icons8-truck" transform="translate(37.000000, 28.000000)" stroke="#FFFFFF">
                        <circle id="Oval" cx="11" cy="9.5" r="1.5"></circle>
                        <path d="M1.5,9.5 L0,9.5 L0,2 C-1.3527075e-16,0.8954305 0.8954305,2.02906125e-16 2,0 L8,0 L8,2" id="Path"></path>
                        <polyline id="Path" points="12.5 9.5 14 9.5 14 5 11 2 8 2 8 9.5"></polyline>
                        <path d="M4.5,9.5 L9.5,9.5" id="Path"></path>
                        <circle id="Oval" cx="3" cy="9.5" r="1.5"></circle>
                    </g>
                </g>
            </g>
        </g>
    </g>
</svg>