<?xml version="1.0" encoding="UTF-8"?>
<svg width="65px" height="54px" viewBox="0 0 65 54" version="1.1" xmlns="http://www.w3.org/2000/svg" xmlns:xlink="http://www.w3.org/1999/xlink">
    <!-- Generator: Sketch 53.2 (72643) - https://sketchapp.com -->
    <title>complex/gas fillups</title>
    <desc>Created with Sketch.</desc>
    <g id="App" stroke="none" stroke-width="1" fill="none" fill-rule="evenodd">
        <g id="icons" transform="translate(-119.000000, -58.000000)">
            <g id="complex" transform="translate(38.000000, 48.000000)">
                <g id="complex/gas-fillups" transform="translate(83.000000, 10.000000)">
                    <path d="M41.6342105,4.60263158 L39.6815789,6.55526316 L46.2368421,13.1105263 L46.2368421,19.5263158 C46.2368421,20.3631579 46.7947368,20.9210526 47.6315789,20.9210526 L50.4210526,20.9210526 C51.2578947,20.9210526 51.8157895,20.3631579 51.8157895,19.5263158 L51.8157895,15.9 C51.8157895,15.2026316 51.5368421,14.5052632 50.9789474,13.9473684 L41.6342105,4.60263158 Z" id="Path" fill="#70A0F2" fill-rule="nonzero"></path>
                    <path d="M42.0526316,53 L8.57894737,53 L8.57894737,5.57894737 C8.57894737,2.51052632 11.0894737,0 14.1578947,0 L36.4736842,0 C39.5421053,0 42.0526316,2.51052632 42.0526316,5.57894737 L42.0526316,53 Z" id="Path" fill="#003DA5" fill-rule="nonzero"></path>
                    <g id="Group" transform="translate(0.000000, 20.921053)" fill-rule="nonzero">
                        <path d="M53.35,9.76315789 C51.9552632,7.25263158 50.4210526,4.74210526 50.4210526,0 L47.6315789,0 C47.6315789,5.57894737 49.3052632,8.50789474 50.9789474,11.1578947 C52.2342105,13.25 53.2105263,15.2026316 53.2105263,18.1315789 C53.2105263,19.6657895 51.9552632,20.9210526 50.4210526,20.9210526 C48.8868421,20.9210526 47.6315789,19.6657895 47.6315789,18.1315789 L47.6315789,11.1578947 C47.6315789,9.62368421 46.3763158,8.36842105 44.8421053,8.36842105 L42.0526316,8.36842105 L42.0526316,11.1578947 L44.8421053,11.1578947 L44.8421053,18.1315789 C44.8421053,21.2 47.3526316,23.7105263 50.4210526,23.7105263 C53.4894737,23.7105263 56,21.2 56,18.1315789 C56,14.5052632 54.6052632,12.1342105 53.35,9.76315789 Z" id="Path" fill="#003DA5"></path>
                        <path d="M0.5,30.2894737 L60,30.2894737" id="Path-4" stroke="#70A0F2" stroke-width="5" fill="#70A0F2" stroke-linecap="round"></path>
                    </g>
                    <path d="M36.4736842,4.18421053 L14.1578947,4.18421053 C13.3210526,4.18421053 12.7631579,4.74210526 12.7631579,5.57894737 L12.7631579,19.5263158 C12.7631579,20.3631579 13.3210526,20.9210526 14.1578947,20.9210526 L36.4736842,20.9210526 C37.3105263,20.9210526 37.8684211,20.3631579 37.8684211,19.5263158 L37.8684211,5.57894737 C37.8684211,4.74210526 37.3105263,4.18421053 36.4736842,4.18421053 Z" id="Path" fill="#B2EBF2" fill-rule="nonzero"></path>
                    <path d="M36.4736842,4.18421053 L14.1578947,4.18421053 C13.3210526,4.18421053 12.7631579,4.74210526 12.7631579,5.57894737 L12.7631579,19.5263158 C12.7631579,20.3631579 13.3210526,20.9210526 14.1578947,20.9210526 L36.4736842,20.9210526 C37.3105263,20.9210526 37.8684211,20.3631579 37.8684211,19.5263158 L37.8684211,5.57894737 C37.8684211,4.74210526 37.3105263,4.18421053 36.4736842,4.18421053 Z" id="Path" fill="#70A0F2" fill-rule="nonzero"></path>
                    <g id="Group" transform="translate(13.763158, 4.578947)">
                        <g id="Group-6" transform="translate(0.339212, 0.654526)" stroke="#FFFFFF" stroke-linecap="round">
                            <path d="M5.68434189e-14,5.25073715 L2.10000038,7.35073754" id="Path-6"></path>
                            <path d="M4.4378886,2.23761154 L6.53788899,4.33761192" id="Path-6-Copy" transform="translate(5.487889, 3.287612) rotate(21.000000) translate(-5.487889, -3.287612) "></path>
                            <path d="M10.174316,1 L12.2743164,3.10000038" id="Path-6-Copy-2" transform="translate(11.224316, 2.050000) rotate(44.000000) translate(-11.224316, -2.050000) "></path>
                            <path d="M15.6998439,2.00667622 L17.7998442,4.10667661" id="Path-6-Copy-3" transform="translate(16.749844, 3.056676) rotate(66.000000) translate(-16.749844, -3.056676) "></path>
                            <path d="M20.6312341,5.18781941 L22.7312344,7.28781979" id="Path-6-Copy-4" transform="translate(21.681234, 6.237820) rotate(89.000000) translate(-21.681234, -6.237820) "></path>
                        </g>
                        <path d="M11.5635283,16.3421053 L19.3277512,9.51196172" id="Path-7" stroke="#FFFFFF" stroke-width="2" stroke-linecap="round"></path>
                        <circle id="Oval" fill="#003DA5" fill-rule="nonzero" cx="11.2368421" cy="16.4210526" r="3"></circle>
                    </g>
                </g>
            </g>
        </g>
    </g>
</svg>