<?xml version="1.0" encoding="UTF-8"?>
<svg width="64px" height="57px" viewBox="0 0 64 57" version="1.1" xmlns="http://www.w3.org/2000/svg" xmlns:xlink="http://www.w3.org/1999/xlink">
    <!-- Generator: Sketch 53.2 (72643) - https://sketchapp.com -->
    <title>complex/contact mechanic</title>
    <desc>Created with Sketch.</desc>
    <g id="App" stroke="none" stroke-width="1" fill="none" fill-rule="evenodd">
        <g id="icons" transform="translate(-532.000000, -54.000000)">
            <g id="complex" transform="translate(38.000000, 48.000000)">
                <g id="complex/contact-mechanic" transform="translate(494.000000, 6.000000)">
                    <path d="M4,-6.39488462e-14 L60,-8.34887715e-14 C62.209139,-8.78188029e-14 64,1.790861 64,4 L64,43.0105621 C64,45.2197011 62.209139,47.0105621 60,47.0105621 L10.6931505,47.0105621 L0,57 L0,4 C-2.705415e-16,1.790861 1.790861,-6.3543034e-14 4,-6.39488462e-14 Z" id="Rectangle" fill="#FFB81C"></path>
                    <g id="Group-7" transform="translate(19.000000, 12.000000)" fill-rule="nonzero">
                        <g id="icons8-screwdriver" transform="translate(13.940000, 14.500000) rotate(-270.000000) translate(-13.940000, -14.500000) translate(0.440000, 1.000000)" fill="#BC8918">
                            <polygon id="Path" points="1.94112 26.88 5.68436364 24.979584 5.68436364 23.079168 12.2363636 16.426368 10.3647418 14.525952 3.81274182 21.177408 1.94112 21.177408 0.0694981818 24.979584"></polygon>
                            <path d="M13.50176,10.527552 L12.6493382,10.700928 C11.6129309,10.911936 11.2251055,12.21024 11.97296,12.9696 L14.0907782,15.12 C14.8386327,15.87936 16.1172655,15.485568 16.3250764,14.433216 L16.4958255,13.56768 C17.4938473,14.094528 18.7473309,13.945344 19.5838691,13.094592 L26.0220364,6.490176 C27.0557964,5.440512 27.0557964,3.739008 26.0220364,2.689344 L24.1490909,0.787584 C23.1153309,-0.26208 21.4396073,-0.26208 20.4058473,0.787584 L13.96768,7.392 C13.1298182,8.242752 12.9828945,9.51552 13.50176,10.527552 Z" id="Path"></path>
                        </g>
                        <g id="icons8-wrench_filled" transform="translate(0.560000, 0.000000)" fill="#FFFFFF">
                            <path d="M26.5247165,4.81757294 L26.2278678,3.91646941 L21.4800417,8.66391756 L19.1490783,7.73125788 L18.2164591,5.39960868 L22.9637009,0.651576155 L22.0626365,0.354714553 C21.3473948,0.119796513 20.6093635,0 19.8678261,0 C16.0011965,0 12.8556522,3.14568112 12.8556522,7.0124788 C12.8556522,7.87676682 13.0140104,8.72177051 13.3272209,9.52937432 L0.83328,22.0238584 C0.29568,22.5608974 0,23.2755859 0,24.0358555 C0,24.796125 0.29568,25.5102291 0.83328,26.0478525 C1.38782609,26.6024227 2.11650783,26.88 2.84518957,26.88 C3.5738713,26.88 4.30255304,26.6024227 4.85709913,26.0478525 L17.35104,13.5539528 C18.1580243,13.8665925 19.0035757,14.0249576 19.8678261,14.0249576 C23.7344557,14.0249576 26.88,10.8792765 26.88,7.0124788 C26.88,6.27090917 26.760793,5.5322614 26.5247165,4.81757294 Z" id="Path"></path>
                        </g>
                    </g>
                </g>
            </g>
        </g>
    </g>
</svg>