<?xml version="1.0" encoding="UTF-8"?>
<svg width="70px" height="44px" viewBox="0 0 70 44" version="1.1" xmlns="http://www.w3.org/2000/svg" xmlns:xlink="http://www.w3.org/1999/xlink">
    <!-- Generator: Sketch 53.2 (72643) - https://sketchapp.com -->
    <title>complex/service ticket</title>
    <desc>Created with Sketch.</desc>
    <g id="App" stroke="none" stroke-width="1" fill="none" fill-rule="evenodd">
        <g id="icons" transform="translate(-318.000000, -67.000000)">
            <g id="complex" transform="translate(38.000000, 48.000000)">
                <g id="complex/service-ticket" transform="translate(280.000000, 19.000000)">
                    <path d="M70,13.0549288 C69.6716661,13.0186333 69.3380091,13 69,13 C64.0294373,13 60,17.0294373 60,22 C60,26.9705627 64.0294373,31 69,31 C69.3380091,31 69.6716661,30.9813667 70,30.9450712 L70,40 C70,42.209139 68.209139,44 66,44 L4,44 C1.790861,44 2.705415e-16,42.209139 0,40 L0,31 C4.97056275,31 9,26.9705627 9,22 C9,17.0294373 4.97056275,13 0,13 L0,4 C-2.705415e-16,1.790861 1.790861,4.05812251e-16 4,0 L66,0 C68.209139,-4.05812251e-16 70,1.790861 70,4 L70,13.0549288 Z" id="Rectangle-2" fill="#FF585D" fill-rule="nonzero"></path>
                    <g id="icons8-engine_oil_level" transform="translate(26.000000, 15.000000)">
                        <polyline id="Path" stroke="#FFFFFF" stroke-width="1.5" fill="#FFFFFF" stroke-linecap="round" stroke-linejoin="round" points="28.4081633 2.57142857 26.0408163 2.57142857 18.3469388 9.66575004 18.3469388 5.42857143 4.73469388 5.42857143 4.73469388 14 18.3469388 14 26.6326531 2.57142857"></polyline>
                        <polyline id="Path" stroke="#FFFFFF" stroke-width="1.5" stroke-linecap="round" stroke-linejoin="round" points="4.73469388 7.14285714 0 5.42857143 0 2 3.55102041 3.14285714 4.73469388 5.42857143"></polyline>
                        <path d="M11.8367347,5.42857143 L11.8367347,2" id="Path" stroke="#FFFFFF" stroke-width="1.5" stroke-linecap="round" stroke-linejoin="round"></path>
                        <rect id="Rectangle" stroke="#FFFFFF" stroke-width="1.5" fill="#FFFFFF" stroke-linecap="round" stroke-linejoin="round" x="9.46938776" y="0" width="4.73469388" height="1.71428571"></rect>
                        <path d="M30.8163265,13.4285714 C30.8163265,14.8492857 29.4738265,16 27.8163265,16 C26.1588265,16 24.8163265,14.8492857 24.8163265,13.4285714 C24.8163265,12.0078571 27.8163265,7 27.8163265,7 C27.8163265,7 30.8163265,12.0078571 30.8163265,13.4285714 Z" id="Path" fill="#FFFFFF" fill-rule="nonzero"></path>
                    </g>
                    <path d="M0,31 C4.97056275,31 9,26.9705627 9,22 C9,17.0294373 4.97056275,13 0,13 L0,4 C-2.705415e-16,1.790861 1.790861,4.05812251e-16 4,0 L20,0 L20,44 L4,44 C1.790861,44 2.705415e-16,42.209139 0,40 L0,31 Z" id="Rectangle-2-Copy" fill="#FF8A8E" fill-rule="nonzero"></path>
                    <path d="M15,36 C15.5522847,36 16,36.4477153 16,37 C16,37.5522847 15.5522847,38 15,38 L13,38 C12.4477153,38 12,37.5522847 12,37 C12,36.4477153 12.4477153,36 13,36 L15,36 Z M15,6 C15.5522847,6 16,6.44771525 16,7 C16,7.55228475 15.5522847,8 15,8 L13,8 C12.4477153,8 12,7.55228475 12,7 C12,6.44771525 12.4477153,6 13,6 L15,6 Z M15,11 C15.5522847,11 16,11.4477153 16,12 C16,12.5522847 15.5522847,13 15,13 L13,13 C12.4477153,13 12,12.5522847 12,12 C12,11.4477153 12.4477153,11 13,11 L15,11 Z M15,16 C15.5522847,16 16,16.4477153 16,17 C16,17.5522847 15.5522847,18 15,18 L13,18 C12.4477153,18 12,17.5522847 12,17 C12,16.4477153 12.4477153,16 13,16 L15,16 Z M15,21 C15.5522847,21 16,21.4477153 16,22 C16,22.5522847 15.5522847,23 15,23 L13,23 C12.4477153,23 12,22.5522847 12,22 C12,21.4477153 12.4477153,21 13,21 L15,21 Z M15,26 C15.5522847,26 16,26.4477153 16,27 C16,27.5522847 15.5522847,28 15,28 L13,28 C12.4477153,28 12,27.5522847 12,27 C12,26.4477153 12.4477153,26 13,26 L15,26 Z M15,31 C15.5522847,31 16,31.4477153 16,32 C16,32.5522847 15.5522847,33 15,33 L13,33 C12.4477153,33 12,32.5522847 12,32 C12,31.4477153 12.4477153,31 13,31 L15,31 Z" id="Path-5" fill="#FFFFFF" fill-rule="nonzero"></path>
                    <g id="Group-4" transform="translate(27.000000, 10.000000)"></g>
                </g>
            </g>
        </g>
    </g>
</svg>