<?xml version="1.0" encoding="UTF-8"?>
<svg width="60px" height="54px" viewBox="0 0 60 54" version="1.1" xmlns="http://www.w3.org/2000/svg" xmlns:xlink="http://www.w3.org/1999/xlink">
    <!-- Generator: Sketch 53.2 (72643) - https://sketchapp.com -->
    <title>complex/update milage</title>
    <desc>Created with Sketch.</desc>
    <g id="App" stroke="none" stroke-width="1" fill="none" fill-rule="evenodd">
        <g id="icons" transform="translate(-220.000000, -59.000000)" fill-rule="nonzero">
            <g id="complex" transform="translate(38.000000, 48.000000)">
                <g id="complex/update-milage" transform="translate(185.000000, 14.000000)">
                    <path d="M47.6666667,48.4826498 L47.6666667,43 C51.474359,38.4225806 53.7307692,32.7354839 53.7307692,26.3548387 C53.5897436,11.7903226 41.6025641,0 26.7948718,0 C11.9871795,0 0,11.7903226 0,26.3548387 C0,32.7354839 2.25641026,38.4225806 6.06410256,43 L6.06410256,48.4826498 L47.6666667,48.4826498 Z" id="Path" fill="#E9B8E9"></path>
                    <path d="M29.5014296,23.1917697 L43.9892372,14.8678779 C44.6591469,14.4829849 45.5139772,14.7073219 45.9085552,15.3715732 C46.29581,16.0234963 46.081254,16.8659164 45.429331,17.2531712 C45.4236184,17.2565645 45.4178813,17.2599164 45.4121201,17.2632264 L30.725878,25.7011278 C30.737598,25.8250255 30.7435897,25.9505424 30.7435897,26.0774194 C30.7435897,28.2967742 28.9102564,30.1 26.6538462,30.1 C24.3974359,30.1 22.5641026,28.2967742 22.5641026,26.0774194 C22.4230769,23.8580645 24.3974359,22.0548387 26.6538462,22.0548387 C27.7601468,22.0548387 28.7647454,22.48831 29.5014296,23.1917697 Z" id="Path-3" fill="#FFFFFF"></path>
                    <rect id="Rectangle" fill="#BB29BB" x="17" y="37" width="19" height="9" rx="2"></rect>
                    <path d="M27,1 L27,1 C27.55,1 28,1.45 28,2 L28,8 C28,8.55 27.55,9 27,9 L27,9 C26.45,9 26,8.55 26,8 L26,2 C26,1.45 26.45,1 27,1 Z" id="Shape" fill="#FFFFFF"></path>
                    <path d="M1,28 L1,28 C1,27.45 1.45,27 2,27 L8,27 C8.55,27 9,27.45 9,28 L9,28 C9,28.55 8.55,29 8,29 L2,29 C1.45,29 1,28.55 1,28 Z" id="Shape" fill="#FFFFFF"></path>
                    <path d="M45,28 L45,28 C45,27.45 45.45,27 46,27 L52,27 C52.55,27 53,27.45 53,28 L53,28 C53,28.55 52.55,29 52,29 L46,29 C45.45,29 45,28.55 45,28 Z" id="Shape" fill="#FFFFFF"></path>
                    <path d="M40.4537864,4.14483564 L40.4537864,4.14483564 C39.9333598,3.84559224 39.2598666,4.02557196 38.9602933,4.54165842 L36.1460537,9.37508993 C35.8442937,9.89117638 36.025787,10.559053 36.5462136,10.8561279 L36.5462136,10.8561279 C37.0666402,11.1532029 37.7401334,10.9753916 38.0397067,10.4593052 L40.8539463,5.62587365 C41.1557063,5.1097872 40.974213,4.44191061 40.4537864,4.14483564 Z" id="Shape" fill="#FFFFFF"></path>
                    <path d="M10.8562862,18.4541577 L10.8562862,18.4541577 C11.1530344,17.934085 10.9754187,17.2610496 10.4599001,16.96168 L5.62312228,14.1449833 C5.10760365,13.8456137 4.44046189,14.0247985 4.14371377,14.5448712 L4.14371377,14.5448712 C3.84696564,15.064944 4.02458131,15.7379794 4.54009994,16.037349 L9.37687772,18.8540456 C9.89239635,19.1556004 10.5573721,18.9742305 10.8562862,18.4541577 Z" id="Shape" fill="#FFFFFF"></path>
                    <path d="M12.5463198,4.14483564 L12.5463198,4.14483564 C13.0668475,3.84559224 13.7404717,4.02557196 14.0401032,4.54165842 L16.8548898,9.37508993 C17.1545213,9.89117638 16.9751798,10.559053 16.4546521,10.8561279 L16.4546521,10.8561279 C15.9341243,11.1532029 15.2605002,10.9753916 14.9608687,10.4593052 L12.1460821,5.62587365 C11.8442634,5.1097872 12.025792,4.44191061 12.5463198,4.14483564 Z" id="Shape" fill="#FFFFFF"></path>
                    <path d="M42.1446564,37.5458423 L42.1446564,37.5458423 C41.8457833,38.065915 42.0255403,38.7389504 42.5409881,39.03832 L47.3771009,41.8550167 C47.8925486,42.1543863 48.5595987,41.9752015 48.856306,41.4551288 L48.856306,41.4551288 C49.1530133,40.935056 48.9754221,40.2620206 48.4599743,39.962651 L43.6238615,37.1459544 C43.1084138,36.8443996 42.4435295,37.0257695 42.1446564,37.5458423 Z" id="Shape" fill="#FFFFFF"></path>
                    <path d="M11.8553436,37.5458423 L11.8553436,37.5458423 C12.1542167,38.065915 11.9744597,38.7389504 11.4590119,39.03832 L6.62289913,41.8550167 C6.10745137,42.1543863 5.44040133,41.9752015 5.14369401,41.4551288 L5.14369401,41.4551288 C4.84698668,40.935056 5.02457793,40.2620206 5.54002569,39.962651 L10.3761385,37.1459544 C10.8915862,36.8443996 11.5564705,37.0257695 11.8553436,37.5458423 Z" id="Shape" fill="#FFFFFF"></path>
                    <path d="M47.6666667,48.4826498 L47.6666667,43 C51.474359,38.4225806 53.7307692,32.7354839 53.7307692,26.3548387 C53.5897436,11.7903226 41.6025641,0 26.7948718,0 C11.9871795,0 0,11.7903226 0,26.3548387 C0,32.7354839 2.25641026,38.4225806 6.06410256,43 L6.06410256,48.4826498" id="Path-Copy-2" stroke="#BB29BB" stroke-width="5" stroke-linecap="round"></path>
                </g>
            </g>
        </g>
    </g>
</svg>